<?xml version="1.0" standalone="no"?><!DOCTYPE svg PUBLIC "-//W3C//DTD SVG 1.1//EN" "http://www.w3.org/Graphics/SVG/1.1/DTD/svg11.dtd"><svg t="1538726637850" class="icon" style="" viewBox="0 0 1024 1024" version="1.1" xmlns="http://www.w3.org/2000/svg" p-id="12192" xmlns:xlink="http://www.w3.org/1999/xlink" width="48" height="48"><defs><style type="text/css"></style></defs><path d="M512 417.841676A112.922249 112.922249 0 1 0 512.02258 191.929438a112.922249 112.922249 0 0 0-0.02258 225.912238z m0 489.465226l239.550518-308.058038c132.273252-136.202161 132.273252-357.056494 0-493.236075-132.273252-136.224741-346.805204-136.224741-479.078456 0-132.318412 136.179581-132.318412 357.033914 0 493.236075l239.527938 308.058038z m-212.928776-777.607762c117.596295-117.618875 308.283837-117.618875 425.834972 0 117.641455 117.573716 117.641455 308.238677 0 425.857552-117.551136 117.596295-308.261257 117.596295-425.834972 0-117.573716-117.596295-117.573716-308.283837 0-425.857552z m452.479294 697.765116c-21.044498-7.022359-44.663109-12.486703-69.162337-17.27365 14.857596 3.25151 29.331334 6.77398 42.540595 10.906108 117.641455 36.963352 117.641455 96.867916 0 133.763529-117.551136 36.963352-308.261257 36.963352-425.834972 0-117.596295-36.895612-117.596295-96.800176 0-133.763529 13.254421-4.154708 27.682999-7.677178 42.540595-10.906108-24.499228 4.786946-48.117839 10.27387-69.162337 17.27365-132.318412 44.098611-132.318412 115.609261 0 159.730452 132.273252 44.076031 346.805204 44.076031 479.078456 0 132.295832-44.143771 132.295832-115.654421 0-159.730452z" p-id="12193"></path></svg>