<?xml version="1.0" standalone="no"?><!DOCTYPE svg PUBLIC "-//W3C//DTD SVG 1.1//EN" "http://www.w3.org/Graphics/SVG/1.1/DTD/svg11.dtd"><svg t="1539085636298" class="icon" style="" viewBox="0 0 1024 1024" version="1.1" xmlns="http://www.w3.org/2000/svg" p-id="5118" xmlns:xlink="http://www.w3.org/1999/xlink" width="48" height="48"><defs><style type="text/css"></style></defs><path d="M512.32 734.18666667c-120.96 0-219.41333333-98.45333333-219.41333333-219.41333334s98.45333333-219.41333333 219.41333333-219.41333333c120.96 0 219.41333333 98.45333333 219.41333333 219.41333333s-98.45333333 219.41333333-219.41333333 219.41333334z m0-370.56c-83.30666667 0-151.14666667 67.84-151.14666667 151.14666666s67.84 151.14666667 151.14666667 151.14666667S663.46666667 598.08 663.46666667 514.77333333s-67.84-151.14666667-151.14666667-151.14666666z" p-id="5119"></path><path d="M512.32 514.77333333m-51.73333333 0a51.73333333 51.73333333 0 1 0 103.46666666 0 51.73333333 51.73333333 0 1 0-103.46666666 0Z" p-id="5120"></path><path d="M510.72 257.06666667c-18.88 0-34.13333333-15.25333333-34.13333333-34.13333334v-52.48c0-18.88 15.25333333-34.13333333 34.13333333-34.13333333s34.13333333 15.25333333 34.13333333 34.13333333V222.93333333c0 18.88-15.25333333 34.13333333-34.13333333 34.13333334zM258.77333333 404.37333333c-5.76 0-11.62666667-1.49333333-17.06666666-4.58666666L196.26666667 373.54666667c-16.32-9.38666667-21.86666667-30.29333333-12.48-46.61333334s30.29333333-21.86666667 46.61333333-12.48l45.44 26.24c16.32 9.38666667 21.86666667 30.29333333 12.48 46.61333334-6.29333333 10.88-17.81333333 17.06666667-29.54666667 17.06666666zM214.93333333 722.45333333c-11.84 0-23.25333333-6.08-29.54666666-17.06666666-9.38666667-16.32-3.84-37.22666667 12.48-46.61333334l45.44-26.24c16.32-9.38666667 37.22666667-3.84 46.61333333 12.48 9.38666667 16.32 3.84 37.22666667-12.48 46.61333334L232 717.86666667c-5.33333333 3.09333333-11.30666667 4.58666667-17.06666667 4.58666666zM513.92 893.22666667c-18.88 0-34.13333333-15.25333333-34.13333333-34.13333334v-52.48c0-18.88 15.25333333-34.13333333 34.13333333-34.13333333s34.13333333 15.25333333 34.13333333 34.13333333v52.48c0 18.77333333-15.25333333 34.13333333-34.13333333 34.13333334zM811.30666667 719.68c-5.76 0-11.62666667-1.49333333-17.06666667-4.58666667L748.8 688.85333333c-16.32-9.38666667-21.86666667-30.29333333-12.48-46.61333333 9.38666667-16.32 30.29333333-21.86666667 46.61333333-12.48l45.44 26.24c16.32 9.38666667 21.86666667 30.29333333 12.48 46.61333333-6.29333333 10.88-17.81333333 17.06666667-29.54666666 17.06666667zM764.26666667 401.6c-11.84 0-23.25333333-6.08-29.54666667-17.06666667-9.38666667-16.32-3.84-37.22666667 12.48-46.61333333l45.44-26.24c16.32-9.38666667 37.22666667-3.84 46.61333333 12.48 9.38666667 16.32 3.84 37.22666667-12.48 46.61333333l-45.44 26.24c-5.44 3.09333333-11.30666667 4.58666667-17.06666666 4.58666667z" p-id="5121"></path></svg>