<?xml version="1.0" standalone="no"?><!DOCTYPE svg PUBLIC "-//W3C//DTD SVG 1.1//EN" "http://www.w3.org/Graphics/SVG/1.1/DTD/svg11.dtd"><svg t="1539085393022" class="icon" style="" viewBox="0 0 1024 1024" version="1.1" xmlns="http://www.w3.org/2000/svg" p-id="4443" xmlns:xlink="http://www.w3.org/1999/xlink" width="48" height="48"><defs><style type="text/css"></style></defs><path d="M511.880028 0C229.177182 0 0 229.177182 0 511.882027s229.177182 511.882027 511.880028 511.882027c282.710844 0 511.888026-229.177182 511.888025-511.882027s-229.177182-511.882027-511.888025-511.882027z m0 993.581011c-266.032688 0-481.694984-215.664296-481.694985-481.696984 0-266.034687 215.662297-481.696984 481.694985-481.696984 266.042685 0 481.702983 215.662297 481.702982 481.696984 0 266.030688-215.660297 481.696984-481.702982 481.696984z" p-id="4444"></path><path d="M576.017246 264.661004h-127.882527l-3.701147 30.524965h135.196841l-3.613167-30.524965z m155.112251 30.532963l-14.712609-30.526964h-127.970507c0.645851 2.925326 2.925326 14.14674 6.358535 30.526964h136.324581z m-305.141674 152.744797l-10.583561 87.809763h192.691591l-10.363612-87.809763h-171.744418z m2.573407-21.201114h166.637595l-6.930402-58.566502h-152.644821l-7.062372 58.566502z m178.422879-72.673251h152.530847l-23.52058-48.808751h-139.119937a25139.466139 25139.466139 0 0 1 10.10967 48.808751z m38.363159 181.684128h201.84748l-42.43422-87.809763h-178.168938c9.5458 45.627484 17.505965 83.084852 18.755678 87.809763zM622.16861 426.73765h172.440257l-28.253488-58.566502h-156.445944c3.997079 19.22157 8.214107 39.220961 12.259175 58.566502z m-208.481952-58.568501h-156.231993L229.207175 426.73765h172.048348l12.431135-58.568501z m167.143479-62.913501h-137.606286l-5.892642 48.808751h149.309589l-5.810661-48.808751z m266.452591 284.850351v-31.906647H176.485326v31.906647h314.525511v127.048719c-28.50743 6.840423-54.267493 8.71999-74.952725 28.07353v0.301931h-0.343921v13.574871h192.421653v-8.558028h0.081981v-4.714913h-0.081981v-0.30193h-0.25994c-20.817202-19.435521-46.487286-21.405067-75.084696-28.285481v-127.138699h314.49152z m-450.538165-142.167235H219.009525l-42.402227 87.809763h201.511557l18.625708-87.809763z m38.993013-183.27776h-128.356418l-14.712609 30.524965h136.536533l6.532494-30.524965z m-8.63201 40.594644h-139.289899l-23.522578 48.808751h152.440867l10.37161-48.808751z" p-id="4445"></path></svg>