<?xml version="1.0" standalone="no"?><!DOCTYPE svg PUBLIC "-//W3C//DTD SVG 1.1//EN" "http://www.w3.org/Graphics/SVG/1.1/DTD/svg11.dtd"><svg t="1539086232776" class="icon" style="" viewBox="0 0 1024 1024" version="1.1" xmlns="http://www.w3.org/2000/svg" p-id="7872" xmlns:xlink="http://www.w3.org/1999/xlink" width="128" height="128"><defs><style type="text/css"></style></defs><path d="M263.548526 463.40949l85.883226-148.670962-85.883226-148.770944H91.782074L5.998828 314.638547l85.883226 148.670963h171.666472zM100.780316 181.564538h153.669987l76.884983 133.17399-76.884983 133.074009H100.780316L23.995313 314.638547l76.785003-133.074009zM588.984964 297.441906l85.883226-148.670963L588.984964 0H417.218512l-85.883226 148.670963 85.883226 148.670962H588.984964zM426.316735 15.596954H579.986721l76.884984 133.173989L579.986721 281.844952H426.316735l-76.884983-133.074009 76.884983-133.173989zM935.017379 463.40949l85.883226-148.670962-85.883226-148.770944H763.250928l-85.883226 148.770944 85.883226 148.670962h171.766451zM772.349151 181.564538h153.669986l76.884983 133.17399-76.884983 133.074009H772.349151l-76.884984-133.074009 76.884984-133.17399zM437.814489 352.131224L352.031244 500.902168l85.883226 148.670962h171.766452l85.883226-148.670962-85.983207-148.770944H437.814489z m162.76821 281.844953H446.912712L370.027729 500.902168l76.884983-133.17399h153.669987l76.884983 133.17399-76.884983 133.074009zM437.814489 726.558094L352.031244 875.329037l85.883226 148.670963h171.766452l85.883226-148.670963-85.883226-148.770943H437.814489z m162.76821 281.844952H446.912712L370.027729 875.329037l76.884983-133.173989h153.669987l76.884983 133.173989-76.884983 133.074009zM278.245655 546.393283H106.479203L20.595977 695.064245l85.883226 148.670963h171.766452L364.028901 695.064245l-85.783246-148.670962z m-9.098223 281.844952H115.477446L38.592462 695.064245l76.884984-133.173989h153.669986L346.032416 695.064245l-76.884984 133.17399zM763.250928 546.393283L677.467682 695.064245l85.883226 148.670963h171.766452L1020.900605 695.064245l-85.883226-148.770943H763.250928z m162.768209 281.844952H772.349151L695.464167 695.064245l76.884984-133.173989h153.669986L1002.90412 695.064245l-76.884983 133.17399z" p-id="7873"></path><path d="M454.492232 460.921976l11.357782-10.689912 138.49295 147.140262L592.984183 608.061238z" p-id="7874"></path></svg>