<?xml version="1.0" standalone="no"?><!DOCTYPE svg PUBLIC "-//W3C//DTD SVG 1.1//EN" "http://www.w3.org/Graphics/SVG/1.1/DTD/svg11.dtd"><svg t="1539086366526" class="icon" style="" viewBox="0 0 1024 1024" version="1.1" xmlns="http://www.w3.org/2000/svg" p-id="8282" xmlns:xlink="http://www.w3.org/1999/xlink" width="128" height="128"><defs><style type="text/css"></style></defs><path d="M382.504104 74.244997H126.903419c-35.16227 0-63.779865 28.617595-63.779865 63.779864v255.616043c0 35.16227 28.617595 63.76553 63.779865 63.76553h255.601708c35.16227 0 63.779865-28.60326 63.779865-63.76553V138.024861c-0.001024-35.161246-28.618619-63.779865-63.780888-63.779864z m5.635464 319.395907c0 3.094181-2.526949 5.62113-5.635464 5.621131H126.903419c-3.108516 0-5.635465-2.526949-5.635465-5.621131V138.024861a5.640584 5.640584 0 0 1 5.635465-5.635465h255.601708a5.640584 5.640584 0 0 1 5.635465 5.635465v255.616043zM893.465884 74.244997H637.849841c-35.16227 0-63.779865 28.617595-63.779865 63.779864v255.616043c0 35.16227 28.617595 63.76553 63.779865 63.76553H893.465884c35.16227 0 63.779865-28.60326 63.779864-63.76553V138.024861c0-35.161246-28.617595-63.779865-63.779864-63.779864z m5.635465 319.395907c0 3.094181-2.526949 5.62113-5.635465 5.621131H637.849841c-3.108516 0-5.635465-2.526949-5.635465-5.621131V138.024861a5.640584 5.640584 0 0 1 5.635465-5.635465H893.465884a5.640584 5.640584 0 0 1 5.635465 5.635465v255.616043zM382.504104 565.304494H126.903419c-35.16227 0-63.779865 28.617595-63.779865 63.779865v255.616043c0 35.16227 28.617595 63.779865 63.779865 63.779864h255.601708c35.16227 0 63.779865-28.617595 63.779865-63.779864V629.084359c-0.001024-35.161246-28.618619-63.779865-63.780888-63.779865z m5.635464 319.395908a5.640584 5.640584 0 0 1-5.635464 5.635464H126.903419a5.640584 5.640584 0 0 1-5.635465-5.635464V629.084359a5.640584 5.640584 0 0 1 5.635465-5.635465h255.601708a5.640584 5.640584 0 0 1 5.635465 5.635465v255.616043zM893.465884 565.304494H637.849841c-35.16227 0-63.779865 28.617595-63.779865 63.779865v255.616043c0 35.16227 28.617595 63.779865 63.779865 63.779864H893.465884c35.16227 0 63.779865-28.617595 63.779864-63.779864V629.084359c0-35.161246-28.617595-63.779865-63.779864-63.779865z m5.635465 319.395908a5.640584 5.640584 0 0 1-5.635465 5.635464H637.849841a5.640584 5.640584 0 0 1-5.635465-5.635464V629.084359a5.640584 5.640584 0 0 1 5.635465-5.635465H893.465884a5.640584 5.640584 0 0 1 5.635465 5.635465v255.616043z" p-id="8283"></path></svg>