<?xml version="1.0" standalone="no"?><!DOCTYPE svg PUBLIC "-//W3C//DTD SVG 1.1//EN" "http://www.w3.org/Graphics/SVG/1.1/DTD/svg11.dtd"><svg t="1539085784444" class="icon" style="" viewBox="0 0 1024 1024" version="1.1" xmlns="http://www.w3.org/2000/svg" p-id="5319" xmlns:xlink="http://www.w3.org/1999/xlink" width="48" height="48"><defs><style type="text/css"></style></defs><path d="M905.6 316.8L736 147.2c-16-16-16-41.6 0-57.6s41.6-16 57.6 0l169.6 169.6c16 16 16 41.6 0 57.6s-41.6 16-57.6 0zM905.6 636.8L736 470.4c-16-16-16-41.6 0-57.6s41.6-16 57.6 0l169.6 169.6c16 16 16 41.6 0 57.6-16 12.8-41.6 12.8-57.6-3.2zM905.6 960L736 790.4c-16-16-16-41.6 0-57.6s41.6-16 57.6 0l169.6 169.6c16 16 16 41.6 0 57.6s-41.6 16-57.6 0zM236.8 960l-169.6-169.6c-16-16-16-41.6 0-57.6s41.6-16 57.6 0l169.6 169.6c16 16 16 41.6 0 57.6s-41.6 16-57.6 0zM588.8 960l-169.6-169.6c-16-16-16-41.6 0-57.6s41.6-16 57.6 0l169.6 169.6c16 16 16 41.6 0 57.6s-41.6 16-57.6 0z" p-id="5320"></path><path d="M163.2 201.6m-108.8 0a108.8 108.8 0 1 0 217.6 0 108.8 108.8 0 1 0-217.6 0Z" p-id="5321"></path><path d="M182.4 512H144c-19.2 0-32-12.8-32-32s12.8-32 32-32h38.4c137.6 0 249.6-112 249.6-249.6v-22.4c0-19.2 12.8-32 32-32s32 12.8 32 32v22.4c0 172.8-140.8 313.6-313.6 313.6z" p-id="5322"></path></svg>