<?xml version="1.0" standalone="no"?><!DOCTYPE svg PUBLIC "-//W3C//DTD SVG 1.1//EN" "http://www.w3.org/Graphics/SVG/1.1/DTD/svg11.dtd"><svg t="1539085532565" class="icon" style="" viewBox="0 0 1024 1024" version="1.1" xmlns="http://www.w3.org/2000/svg" p-id="4794" xmlns:xlink="http://www.w3.org/1999/xlink" width="48" height="48"><defs><style type="text/css"></style></defs><path d="M724.48 416H704a32 32 0 0 1 0-64h20.48a64 64 0 1 0 0-128H448a32 32 0 0 1 0-64h276.48a128 128 0 0 1 0 256zM320 224H192a32 32 0 0 1 0-64h128a32 32 0 0 1 0 64z m0 256H256a96 96 0 1 1 0-192h320a32 32 0 0 1 0 64H256a32 32 0 0 0 0 64h64a32 32 0 0 1 0 64z m0 224a32 32 0 0 1-32-32v-96a32 32 0 0 1 64 0v96a32 32 0 0 1-32 32z m0 160a32 32 0 0 1-32-32v-32a32 32 0 0 1 64 0v32a32 32 0 0 1-32 32z m192-224a32 32 0 0 1-32-32v-32a32 32 0 0 1 64 0v32a32 32 0 0 1-32 32z m0 224a32 32 0 0 1-32-32v-96a32 32 0 0 1 64 0v96a32 32 0 0 1-32 32z m192-160a32 32 0 0 1-32-32v-96a32 32 0 0 1 64 0v96a32 32 0 0 1-32 32z m0 160a32 32 0 0 1-32-32v-32a32 32 0 0 1 64 0v32a32 32 0 0 1-32 32z" p-id="4795"></path></svg>