<?xml version="1.0" standalone="no"?><!DOCTYPE svg PUBLIC "-//W3C//DTD SVG 1.1//EN" "http://www.w3.org/Graphics/SVG/1.1/DTD/svg11.dtd"><svg t="1566289544956" class="icon" viewBox="0 0 1024 1024" version="1.1" xmlns="http://www.w3.org/2000/svg" p-id="1403" width="48" height="48" xmlns:xlink="http://www.w3.org/1999/xlink"><defs><style type="text/css"></style></defs><path d="M512 819.2H273.066667c-26.4192 0-68.266667 0-68.266667-51.2s43.485867-77.073067 68.266667-85.333333c75.741867-25.258667 114.107733-50.517333 128.989866-89.531734C345.838933 559.616 307.2 490.052267 307.2 409.6c0-113.117867 76.424533-204.8 170.666667-204.8s170.666667 91.682133 170.666666 204.8c0 11.605333-0.8192 23.04-2.389333 34.133333A136.567467 136.567467 0 0 0 512 580.164267V819.2z" fill="" p-id="1404"></path><path d="M716.8 614.4v-34.304c0-18.432-15.291733-33.962667-34.133333-33.962667-18.978133 0-34.133333 15.223467-34.133334 33.962667V614.4h68.266667z m-136.533333 0v-34.235733a102.4 102.4 0 0 1 204.8 0V614.4h0.1024c18.773333 0 34.030933 15.394133 34.030933 33.792v137.216c0 18.6368-15.4624 33.792-34.030933 33.792h-205.0048a34.0992 34.0992 0 0 1-34.030934-33.792v-137.216c0-18.6368 15.4624-33.792 34.030934-33.792H580.266667z" fill="" p-id="1405"></path></svg>