<?xml version="1.0" standalone="no"?><!DOCTYPE svg PUBLIC "-//W3C//DTD SVG 1.1//EN" "http://www.w3.org/Graphics/SVG/1.1/DTD/svg11.dtd"><svg t="1539086066978" class="icon" style="" viewBox="0 0 1024 1024" version="1.1" xmlns="http://www.w3.org/2000/svg" p-id="7150" xmlns:xlink="http://www.w3.org/1999/xlink" width="48" height="48"><defs><style type="text/css"></style></defs><path d="M384 512h96v96c0 19.2 12.8 32 32 32s32-12.8 32-32v-96h96c70.4 0 128-57.6 128-128V288c0-19.2-12.8-32-32-32h-128c-38.4 0-73.6 16-96 44.8-22.4-28.8-57.6-44.8-96-44.8H288c-19.2 0-32 12.8-32 32v96c0 70.4 57.6 128 128 128z m160-128c0-35.2 28.8-64 64-64h96v64c0 35.2-28.8 64-64 64h-96v-64z m-224-64h96c35.2 0 64 28.8 64 64v64h-96c-35.2 0-64-28.8-64-64v-64z" p-id="7151"></path><path d="M793.6 716.8l-96-128c-3.2-3.2-6.4-6.4-12.8-9.6-3.2-3.2-9.6-3.2-12.8-3.2h-32c-19.2 0-32 12.8-32 32s12.8 32 32 32h16l48 64H320l48-64h16c19.2 0 32-12.8 32-32s-12.8-32-32-32h-32c-6.4 0-9.6 0-16 3.2-3.2 3.2-9.6 6.4-12.8 9.6l-96 128c-12.8 22.4 3.2 51.2 28.8 51.2h512a32 32 0 0 0 25.6-51.2z" p-id="7152"></path></svg>