<?xml version="1.0" standalone="no"?><!DOCTYPE svg PUBLIC "-//W3C//DTD SVG 1.1//EN" "http://www.w3.org/Graphics/SVG/1.1/DTD/svg11.dtd"><svg t="1569670637502" class="icon" viewBox="0 0 1024 1024" version="1.1" xmlns="http://www.w3.org/2000/svg" p-id="4278" xmlns:xlink="http://www.w3.org/1999/xlink" width="32" height="32"><defs><style type="text/css"></style></defs><path d="M910.222222 170.666667v512H113.777778V170.666667h796.444444m0-56.888889H113.777778a56.888889 56.888889 0 0 0-56.888889 56.888889v512a56.888889 56.888889 0 0 0 56.888889 56.888889h796.444444a56.888889 56.888889 0 0 0 56.888889-56.888889V170.666667a56.888889 56.888889 0 0 0-56.888889-56.888889z" fill="" p-id="4279"></path><path d="M967.111111 544.237037H56.888889v56.888889h910.222222v-56.888889zM682.666667 853.333333H341.333333a28.444444 28.444444 0 0 0 0 56.888889h341.333334a28.444444 28.444444 0 0 0 0-56.888889z" fill="" p-id="4280"></path><path d="M540.444444 732.918519h-56.888888v123.543703h56.888888V732.918519z" fill="" p-id="4281"></path></svg>