<?xml version="1.0" standalone="no"?><!DOCTYPE svg PUBLIC "-//W3C//DTD SVG 1.1//EN" "http://www.w3.org/Graphics/SVG/1.1/DTD/svg11.dtd"><svg t="1539085861275" class="icon" style="" viewBox="0 0 1418 1024" version="1.1" xmlns="http://www.w3.org/2000/svg" p-id="6200" xmlns:xlink="http://www.w3.org/1999/xlink" width="66.46875" height="48"><defs><style type="text/css"></style></defs><path d="M934.532628 0.03641c161.467819-2.961376 290.166313 175.25521 186.906526 320.411187-84.350672 118.576413-358.787708 82.530154-558.29222 82.530154-57.771108 0-166.22544 16.190474-208.752743-7.282072-0.801028-5.655743-1.62633-11.335759-2.427357-16.991502 2.427357-3.228385 4.854715-6.481044 7.282072-9.70943 228.584253-39.93003 826.296758 113.2605 754.908175-199.043313-25.293065-110.663227-171.128702-178.726331-276.718752-97.094299-92.385226 71.412857-66.849425 217.83106 55.829222 240.30839 6.845148 13.059183 10.04926 23.424-4.854715 31.555647-79.228948 30.48761-160.011405-102.288844-138.359376-189.333883 16.724493-67.237802 56.848712-116.634527 116.513159-140.786734z m291.282897 145.641449c180.35266-3.349753 259.678703 218.365078 123.795231 315.556472-62.140351 44.444915-174.259993 36.434636-281.573467 36.410362H466.052635c-63.621039 0-234.555553 16.044833-276.718752-7.282073-0.801028-5.655743-1.62633-11.335759-2.427357-16.991502 2.427357-3.228385 4.854715-6.481044 7.282072-9.70943q401.679115-1.201542 803.455324-2.427357c87.409143 0.024274 207.514791 15.583635 281.573468-7.282073 103.502523-31.944024 143.14127-181.275056 43.692434-247.590462-22.453057-14.976796-92.14249-40.561143-118.940516-12.136788-12.889268 13.690296-2.572999 21.700576-26.700932 26.700933q-7.282072-8.483614-14.564145-16.991503c9.151138-39.978578 30.560431-42.017558 63.111294-58.256579zM12.136787 553.473915h813.164755c141.927592-0.024274 300.33694-12.306702 388.377196 41.265077 80.80673 49.153989 131.150124 188.872685 72.820724 303.419684-85.321615 167.609034-362.210282 171.177249-436.924346-9.70943-45.003208-108.939804 3.155565-220.428332 94.666942-247.590462 20.486897-6.092667 34.371382-8.932676 50.974507 2.427357v2.427358c-0.728207 13.568928-2.475905 14.175768-7.282072 21.846217-110.469039 19.661596-155.108143 129.475248-92.239585 233.026318 33.327618 54.882553 86.486747 76.680223 162.632951 89.812226 182.682924 31.482826 291.962557-245.745671 157.778236-349.539476-71.801234-55.537939-188.02311-50.998781-317.983829-50.974507H286.428182c-65.05318 0-240.745314 16.506031-284.000825-7.282073-0.801028-5.655743-1.62633-11.335759-2.427357-16.991502z" p-id="6201"></path></svg>