<?xml version="1.0" standalone="no"?><!DOCTYPE svg PUBLIC "-//W3C//DTD SVG 1.1//EN" "http://www.w3.org/Graphics/SVG/1.1/DTD/svg11.dtd"><svg t="1557018578958" class="icon" style="" viewBox="0 0 1024 1024" version="1.1" xmlns="http://www.w3.org/2000/svg" p-id="2304" xmlns:xlink="http://www.w3.org/1999/xlink" width="32" height="32"><defs><style type="text/css"></style></defs><path d="M558.241496 418.575445c-0.857542 0-6.860335 1.715084-8.575418 2.572625-8.575419 0.857542-17.150837 0.857542-24.868714 0-4.287709 0-7.717877-3.430167-8.575419-7.717876-2.572626-13.72067-10.290502-11.148044-14.578212-12.005587-1.715084 0-2.572626-0.857542-3.430167-2.572625-0.857542-2.572626 0-5.145251 1.715083-6.860335 4.287709-4.287709 5.145251-11.148044 0.857542-16.293295-0.857542-0.857542-2.572626-1.715084-3.430167-2.572626-10.290502-6.002793-22.296088-18.008379-15.435754-19.723463s4.287709-6.860335 6.860335-10.290502 0.857542-5.145251 4.28771-6.002793-0.857542-6.860335-4.28771-5.145251-10.290502 5.145251-7.717876-3.430168-12.005586-15.435754-14.578212-20.581005-12.005586-9.43296-6.860335-22.296088c4.287709-10.290502 0.857542-12.005586-3.430168-10.290502-6.860335 2.572626-7.717877-9.43296-8.575418-16.293296-0.857542-3.430167-1.715084-6.860335-3.430168-10.290502-5.145251-10.290502-9.43296-20.581005-12.005586-31.729049 0-6.002793-8.575419-10.290502-8.575418-16.293295s-6.002793-7.717877-3.430168-12.005587-6.860335-10.290502-10.290502-4.287709-6.002793 6.002793-11.148044 3.430168-9.43296-3.430167-12.863128 3.430167-13.72067 7.717877-11.148045 1.715084 0.857542-10.290502-4.287709-11.148044-3.430167-8.575419-11.148044-14.578212-12.863128-19.723463-6.860335-23.15363 18.865921-10.290502 16.293295-18.865921c-1.715084-4.287709-3.430167-8.575419-5.145251-12.005586-2.572626-6.860335-1.715084-12.863128-10.290502-12.005587S339.568321 83.276576 329.277819 76.416241c-3.430167-3.430167-6.002793-8.575419-6.002793-13.720669 0-4.287709-4.287709-5.145251-13.72067 5.145251S305.266647 83.276576 297.54877 85.849202s-12.863128 0-12.005586 10.290502c0.857542 11.148044-0.857542 21.438547-5.145251 31.729049l-3.430168 2.572626c-1.715084-8.575419-6.002793-17.150837-12.005586-23.15363-0.857542-1.715084-1.715084-2.572626-1.715084-4.28771-3.430167-13.72067-5.145251-54.882679-2.572625-57.455305 5.145251-11.148044 3.430167-28.298881 6.002793-40.304467V1.810099h-0.857542c0 0.857542-13.72067-6.860335-16.293295 4.28771s7.717877 20.581005-4.28771 20.581004 0 23.15363-9.43296 24.868714 1.715084-28.298881-14.578212-23.15363c-3.430167 0.857542-6.860335 0-8.575419 1.715084-2.572626 10.290502-5.145251 20.581005-6.002793 30.871507-1.715084 8.575419-1.715084 18.008379-0.857542 27.44134 3.430167 6.860335 10.290502 35.159216-6.860334 37.731841s-18.865921 1.715084-21.438547 5.145252-4.287709-3.430167-5.145251-14.578212-3.430167-24.868714-9.432961-19.723463-1.715084 12.863128-4.287709 16.293296c-2.572626 1.715084-5.145251 3.430167-8.575419 4.287709l-2.572625 0.857542c0.857542 0.857542 1.715084 1.715084 1.715084 3.430167l-2.572626 7.717877-0.857542 1.715084s-2.572626 6.002793-0.857542 8.575418c1.715084 2.572626 5.145251 5.145251 5.145251 7.717877s-0.857542 7.717877 0.857542 10.290502c0.857542 2.572626 1.715084 6.002793 1.715084 9.432961 0 2.572626 0 6.002793 0.857542 8.575419 1.715084 4.287709 3.430167 8.575419 3.430167 12.863127 0 1.715084 0 4.287709 0.857542 6.002794 0 2.572626 2.572626 4.287709 5.145251 4.287709 2.572626 0.857542 5.145251 0.857542 7.717877-0.857542 1.715084-1.715084 2.572626-3.430167 2.572626-6.002793 0.857542-6.860335 0-10.290502 4.287709-8.575419 1.715084 0.857542 4.287709 1.715084 6.002793 1.715084 2.572626 0.857542 4.287709 2.572626 5.145251 4.287709 4.287709 7.717877 6.002793-0.857542 9.432961 3.430168 2.572626 2.572626 1.715084 2.572626 0.857542 6.860335-0.857542 5.145251-0.857542 10.290502 0 15.435753 0.857542 5.145251 1.715084 11.148044 1.715083 16.293296-0.857542 6.002793-4.287709 10.290502-5.145251 17.150837-0.857542 3.430167 0 6.860335 2.572626 9.43296 3.430167 4.287709 3.430167 6.860335 2.572625 9.432961-0.857542 1.715084-1.715084 3.430167-1.715083 5.145251-0.857542 4.287709-1.715084 9.43296-1.715084 13.72067 0.857542 4.287709 0.857542 7.717877 0 12.005586-0.857542 2.572626-0.857542 5.145251 0 7.717877 0 5.145251 0 9.43296-1.715084 13.72067-0.857542 2.572626-0.857542 5.145251-0.857542 7.717876 0 4.287709-0.857542 8.575419-2.572625 12.863128-1.715084 4.287709-4.287709 7.717877-6.860335 12.005586-7.717877 7.717877-0.857542 8.575419 0.857542 14.578212 0.857542 3.430167 0 7.717877-3.430168 10.290502-1.715084 1.715084-3.430167 0.857542-4.287709-2.572625s-1.715084-3.430167-4.287709-4.28771-9.43296-1.715084-6.002793 6.002793c0.857542 1.715084 0.857542 3.430167 0.857541 6.002794 0.857542 3.430167 1.715084 7.717877 2.572626 11.148044 0.857542 3.430167 5.145251 5.145251 6.860335 7.717876s1.715084 4.287709 0 6.860335c-2.572626 5.145251-6.002793 6.860335-10.290502 4.28771-1.715084-0.857542-0.857542-2.572626-6.002794-4.28771s-7.717877 2.572626-9.43296 6.002793c-0.857542 2.572626-1.715084 5.145251-2.572626 6.860335-3.430167 4.287709-6.860335 5.145251-9.43296 12.005586-3.430167 8.575419-6.860335 9.43296-12.005586 4.28771-1.715084 0-14.578212-12.863128-13.72067-5.145251-0.857542 2.572626-1.715084 6.002793-3.430167 8.575418-2.572626 5.145251-1.715084 3.430167-0.857542 7.717877 0.857542 2.572626-0.857542 6.002793-3.430168 6.860335-5.145251 2.572626-5.145251 10.290502-8.575418 10.290502s-4.287709 6.002793-6.860335 7.717877c0 0-3.430167 6.860335-6.860335 6.860335-2.572626-0.857542-4.287709-1.715084-6.002793-2.572626-6.860335-4.287709-6.002793 1.715084-9.432961 5.145251-1.715084 3.430167-2.572626 8.575419-6.860335 10.290503-6.860335 2.572626-1.715084 4.287709-4.287709 10.290502-1.715084 2.572626-1.715084 5.145251-2.572626 8.575419 0 0 0.857542 5.145251 2.572626 6.002793 0.857542 1.715084 1.715084 3.430167 1.715084 5.145251 1.715084 7.717877-10.290502-2.572626-12.863128 3.430167s-9.43296 3.430167-12.005586 13.72067c-0.857542 5.145251-1.715084 10.290502-2.572626 14.578212 0 1.715084-1.715084 4.287709-2.572625 7.717877-2.572626 9.43296-1.715084 6.860335 4.287709 10.290502s5.145251-2.572626 7.717877 1.715084c0 0 2.572626 3.430167 3.430167 6.860335 3.430167 6.860335-8.575419 2.572626-4.287709 10.290502l2.572625 0.857542s5.145251 0.857542 4.28771 4.287709 0 7.717877 0 10.290503c-0.857542 2.572626-3.430167 5.145251-5.145251 6.860335-2.572626 1.715084-9.43296 5.145251-9.432961 7.717876s-3.430167 4.287709-5.145251 5.145251-7.717877 6.002793-4.287709 8.575419c4.287709 5.145251 5.145251 9.43296 16.293295 3.430168 2.572626-1.715084 6.002793-3.430167 9.43296-5.145252 6.002793-4.287709 12.863128-7.717877 19.723463-8.575418 3.430167 0.857542 7.717877 0 11.148045 0.857542 2.572626 0 6.002793-0.857542 8.575418-1.715084 3.430167-3.430167 6.002793-2.572626 12.005586-2.572626 2.572626 0 5.145251 0.857542 7.717877 1.715084 3.430167 1.715084 6.860335 1.715084 11.148044 1.715084 3.430167 0 7.717877-0.857542 11.148044-1.715084s8.575419 4.287709 8.575419 4.287709c0.857542 0.857542 1.715084 1.715084 2.572626 1.715084 4.287709 2.572626 9.43296 3.430167 13.720669 1.715084 3.430167-0.857542 6.002793-1.715084 9.432961-1.715084 3.430167 0 2.572626-0.857542 6.002793-3.430167s2.572626-0.857542 3.430167 2.572625 0.857542 6.002793-2.572625 6.860335c-2.572626 0.857542-5.145251 2.572626-7.717877 3.430168-1.715084 1.715084-3.430167 2.572626-6.002793 2.572625-9.43296 1.715084-10.290502 3.430167-9.43296 6.860335 0.857542 4.287709 0.857542 8.575419 0 12.863128-2.572626 4.287709-1.715084 8.575419 5.145251 7.717877 4.287709-0.857542 7.717877 0 7.717876 4.287709v2.572626c0 4.287709 0.857542 8.575419 1.715084 12.005586 1.715084 1.715084 3.430167 5.145251 0.857542 6.860335-5.145251 4.287709-6.002793 5.145251-0.857542 9.43296s7.717877 9.43296 5.145251 14.578212c-1.715084 2.572626-4.287709 6.002793 0.857542 6.002793 5.145251 1.715084 2.572626 6.002793-0.857542 9.43296-1.715084 2.572626-4.287709 4.287709-4.287709 6.860335 2.572626 4.287709 6.860335 5.145251 11.148044 3.430168 2.572626-0.857542 6.860335-0.857542 6.002793 2.572625s0 6.002793 4.28771 7.717877c1.715084 0.857542 4.287709 0.857542 6.860335 0 4.287709 0 6.002793 0 8.575418 1.715084l2.572626 1.715083c2.572626 0.857542 5.145251 0 7.717877-0.857541 2.572626-1.715084 5.145251-3.430167 6.860334 0 1.715084 2.572626 5.145251 3.430167 7.717877 2.572625l4.28771 0.857542c2.572626 0 5.145251 1.715084 5.145251 5.145251v9.432961c0.857542 2.572626 5.145251 15.435754-5.145251 7.717877-1.715084-1.715084-5.145251-3.430167-4.28771 0 0 4.287709-1.715084 8.575419-5.145251 11.148044-3.430167 3.430167-12.863128 7.717877-12.005586 12.863128s4.287709 5.145251 5.145251 13.720669c-0.857542 4.287709 0 10.290502-4.287709 12.863128s-10.290502 4.287709-11.148044 11.148045c0 6.002793-2.572626 12.005586-7.717877 16.293295-2.572626 1.715084-5.145251 3.430167-7.717877 6.002793-2.572626 3.430167-3.430167 6.002793 0 7.717877 7.717877 4.287709 16.293295 6.002793 24.868714 6.002793h4.287709c4.287709-0.857542 7.717877-0.857542 12.005586 0 2.572626 0.857542 10.290502 4.287709 12.863128 5.145251s7.717877 6.860335 8.575419 6.860335 2.572626-1.715084 4.287709-2.572626 2.572626-0.857542 6.860335 2.572626 7.717877 5.145251 8.575419 2.572626 3.430167-0.857542 5.145251-0.857542c5.145251 1.715084 6.860335 6.860335 4.287709 13.72067-0.857542 2.572626-2.572626 5.145251-5.145251 7.717876-2.572626 6.002793-1.715084 12.005586 1.715084 17.150838 6.002793 5.145251 1.715084 9.43296 5.145251 12.005586 7.717877 5.145251 6.860335-6.860335 12.863128-4.28771 0.857542 0 2.572626 0.857542 2.572626 2.572626 1.715084 2.572626 0.857542 5.145251-1.715084 6.860335-6.002793 6.002793-6.860335 13.72067 2.572626 14.578211 3.430167-1.715084 6.860335 0 8.575418 2.572626 1.715084 3.430167 4.287709 0 6.002793-2.572626s7.717877-3.430167 11.148044-3.430167c6.002793-0.857542 6.860335 2.572626 8.575419 8.575419 0.857542 3.430167 6.860335 3.430167 10.290502 5.145251 2.572626 0 6.002793 0 8.575419-0.857542 4.287709-1.715084 7.717877-4.287709 11.148044-6.860335l3.430168-1.715084c3.430167-2.572626 6.860335-6.002793 10.290502-10.290502 3.430167-4.287709 2.572626-5.145251 8.575419-4.287709 3.430167 0.857542 6.002793 0 9.43296-1.715084 3.430167-1.715084 6.860335-2.572626 10.290503-4.287709l1.715083-0.857542c2.572626-0.857542 4.287709 0 6.860335 1.715083 4.287709 5.145251 5.145251 12.005586 1.715084 18.00838-1.715084 6.002793-0.857542 2.572626 2.572625 4.287709s3.430167 2.572626 0.857542 6.002793 0 4.287709 0 6.860335-1.715084 3.430167-4.287709 4.287709-1.715084 4.287709 0 7.717877 6.002793 4.287709 7.717877 5.145251 0 4.287709-1.715084 6.002793 1.715084 9.43296 6.002793 10.290503c4.287709 0 7.717877-0.857542 11.148044-2.572626 3.430167-0.857542 6.002793 0.857542 8.575419-0.857542 6.002793-2.572626 9.43296 1.715084 12.863128 3.430168 6.002793 3.430167 12.005586 6.860335 18.008379 9.43296 3.430167 0 4.287709-0.857542 5.145251-3.430167s0.857542-4.287709 4.28771-5.145252 1.715084-5.145251 0-7.717876-7.717877-1.715084-8.575419-5.145252c-0.857542-4.287709-0.857542-8.575419 0.857542-12.863128 0.857542-2.572626 1.715084-6.002793 1.715083-8.575418 0.857542-1.715084 0.857542-3.430167 0-6.002793-0.857542-2.572626-0.857542-6.002793 2.572626-6.002793s11.148044 0 6.002793-6.002793-4.287709-6.002793-4.287709-9.432961c-1.715084-7.717877 2.572626-12.863128-0.857542-18.008379l-7.717877-10.290502-1.715084-1.715084c-1.715084-1.715084-2.572626-4.287709-2.572625-6.860335 0.857542-3.430167 0-6.860335-1.715084-9.43296-1.715084-2.572626-2.572626-5.145251-0.857542-7.717877s0-6.860335-1.715083-10.290502-2.572626-7.717877 1.715083-6.860335 6.002793 0 7.717877-5.145252c1.715084-3.430167 2.572626-6.860335 2.572626-10.290502 0-2.572626 0.857542-4.287709 1.715083-6.860335 0.857542-1.715084 2.572626-2.572626 4.28771-3.430167 5.145251-1.715084 9.43296-1.715084 10.290502 3.430167s0.857542 8.575419 4.287709 9.432961c2.572626 0.857542 5.145251 0 6.860335-0.857542 4.287709-3.430167 10.290502-5.145251 15.435754-3.430168 3.430167 0 6.860335 0.857542 9.43296 2.572626 2.572626 2.572626 4.287709 1.715084 8.575419 0.857542s5.145251 1.715084 7.717877-3.430168c0.857542-3.430167 2.572626-6.002793 4.287709-8.575418l11.148044-8.575419c0.857542-0.857542 1.715084-3.430167 0.857542-4.287709-0.857542-2.572626-0.857542-5.145251 3.430167-4.28771s5.145251 0 6.002794-4.287709 1.715084-6.002793 4.287709-5.145251c2.572626 0.857542 2.572626 0 5.145251 3.430167s3.430167 4.287709 6.860335 3.430168c4.287709 0 8.575419 1.715084 11.148044 4.287709 3.430167 2.572626 12.005586 9.43296 14.578212 10.290503 2.572626 1.715084 5.145251 4.287709 5.145251 7.717876 0.857542 3.430167 0.857542 6.002793 6.860335 8.575419s1.715084 5.145251 7.717877 6.002793 6.860335 0.857542 6.860335-2.572626 2.572626-3.430167 6.002793-4.287709 5.145251-2.572626 5.145251-6.860335c0.857542-3.430167 2.572626-6.860335 6.002793-8.575418 2.572626-1.715084 5.145251-3.430167 6.860335-6.002793l1.715083-3.430168 0.857542-1.715084c1.715084-4.287709 4.287709-9.43296 8.575419-6.002793 5.145251 2.572626 7.717877 7.717877 8.575419 13.72067 1.715084 8.575419 6.002793 18.008379 10.290502 11.148044s6.860335-18.865921 12.005586-22.296088 4.287709 0.857542 6.860335 5.145251 0 2.572626 7.717877 8.575419c6.860335 5.145251 12.863128 11.148044 18.008379 17.150837 4.287709 6.002793 6.002793 9.43296 8.575418 7.717877 0.857542 0 1.715084-0.857542 1.715084-1.715084 0.857542-1.715084 0.857542-3.430167 0-5.145251-1.715084-6.860335 0.857542-6.002793 1.715084-11.148044 0.857542-6.860335 3.430167-13.72067 8.575419-18.00838l2.572625-1.715083c3.430167-0.857542 6.002793-2.572626 9.432961-2.572626l10.290502-2.572625c4.287709 0-1.715084 0.857542-1.715084 7.717876v6.002793c0 9.43296 1.715084 0.857542 6.860335 6.002793 3.430167 2.572626 3.430167 3.430167 6.002793 0.857542 4.287709-2.572626 5.145251-6.002793 8.575419-6.860335 3.430167-1.715084 6.002793-3.430167 8.575418-6.002793 2.572626-1.715084 6.860335-6.860335 9.432961-2.572625 0.857542 2.572626 1.715084 2.572626 3.430167 0.857542s3.430167 0 6.002793 0.857541 6.860335-3.430167 6.860335-3.430167l1.715084-1.715084c1.715084-4.287709 6.002793-6.002793 10.290502-5.145251 6.002793 0.857542 0.857542-8.575419 0.857542-8.575419l-1.715083-2.572625c-1.715084-2.572626-0.857542-6.002793-1.715084-9.432961 0-1.715084 5.145251-5.145251 6.860335-6.002793 3.430167-2.572626 4.287709-5.145251 6.860335-1.715083s7.717877-5.145251 7.717876-5.145252l1.715084-1.715083c1.715084-1.715084 4.287709-3.430167 6.860335-4.28771 0.857542 0 1.715084-0.857542 2.572626-0.857541 2.572626-1.715084 3.430167-0.857542 6.860335-0.857542s4.287709 1.715084 6.860334 1.715083 4.287709-2.572626 4.28771-4.287709c0.857542-2.572626 2.572626-4.287709 5.145251-6.860335 2.572626-3.430167 4.287709-2.572626 6.002793 1.715084s3.430167 0.857542 5.145251 6.002793c1.715084 3.430167 3.430167 2.572626 5.145251 0.857542s1.715084 4.287709 2.572626 6.002793 4.287709 5.145251 4.287709 5.145251l0.857542 0.857542 2.572626-1.715084c1.715084-0.857542 14.578212-5.145251 15.435753-5.145251 5.145251-0.857542 2.572626-6.860335 2.572626-9.43296s12.005586-2.572626 15.435753-10.290503 8.575419-3.430167 13.72067-1.715084c6.002793 2.572626 12.005586 1.715084 17.150837-1.715083 5.145251-4.287709 3.430167-8.575419 5.145252-11.148045 3.430167-6.002793 4.287709-12.005586 4.287709-18.86592-0.857542-9.43296-0.857542-7.717877 1.715084-8.575419s2.572626-6.860335-1.715084-11.148044c-1.715084-1.715084-3.430167-4.287709-5.145251-6.860335l-2.572626-4.28771c-5.145251-6.860335-2.572626-9.43296-6.860335-12.863128s-13.72067 2.572626-13.72067 6.002794-0.857542 0-6.002793 2.572625-4.287709 1.715084-5.145251-1.715084-10.290502 0-15.435753 0.857542-3.430167-6.860335-6.860335-10.290502-7.717877 2.572626-11.148044 7.717877-9.43296 4.287709-12.863128-2.572626-9.43296-2.572626-15.435754-4.287709-6.002793-6.860335-2.572626-7.717877 0-8.575419-2.572625-14.578212c-1.715084-6.002793-3.430167-11.148044-6.860335-16.293295-3.430167-5.145251-10.290502-6.860335-16.293295-4.287709-5.145251 2.572626-13.72067-0.857542-23.153631-3.430168s-6.860335-0.857542-6.860335 7.717877-3.430167 5.145251-8.575418 0.857542c-6.002793-7.717877-10.290502-16.293295-12.863128-25.726256-3.430167-12.005586-0.857542-12.005586 0-19.723463s1.715084-11.148044 13.72067-24.011172 9.43296-14.578212 6.002793-18.865921 7.717877-11.148044 9.43296-16.293295 7.717877 1.715084 8.575419-2.572626-6.002793-7.717877-13.72067-9.432961-4.287709-6.860335-8.575419-11.148044-5.145251-1.715084-5.145251-12.005586-3.430167-6.860335-7.717877-4.287709-3.430167 0.857542-3.430167-4.287709-5.145251-6.002793-12.005586-17.150838 4.287709-11.148044 7.717877-13.72067 5.145251-21.438547 7.717876-29.156423c4.287709-7.717877 7.717877-15.435754 11.148045-24.011172 0.857542-7.717877 5.145251-14.578212 12.005586-17.150837 6.002793-4.287709-0.857542-14.578212-3.430168-22.296089s-5.145251-6.860335-10.290502-8.575418-3.430167-3.430167-5.145251-9.432961-6.860335-6.860335-12.005586 0l-1.715084 1.715084c-5.145251 4.287709-12.005586 0-18.865921-2.572626s-11.148044 6.860335-12.005586 12.005586-12.005586 3.430167-22.296089 1.715084c-7.717877-1.715084-10.290502-5.145251-10.290502-10.290502 0-1.715084 0.857542-3.430167 1.715084-4.28771 0.857542-4.287709 0-8.575419-1.715084-12.005586-1.715084-3.430167-1.715084-6.860335-2.572626-10.290502 0-3.430167 4.287709-6.860335 6.860335-9.432961s0.857542-7.717877-0.857542-10.290502c-0.857542-3.430167-3.430167-6.002793-6.002793-8.575419-2.572626-1.715084-5.145251 3.430167-6.860334 3.430168-0.857542 0-2.572626-0.857542-2.572626-1.715084 0-6.002793 3.430167-10.290502 8.575419-12.863128 6.860335-2.572626 13.72067-13.72067 22.296088-27.441339s9.43296-6.860335 20.581005 10.290502 14.578212 2.572626 24.868714-8.575419 11.148044-4.287709 21.438546 6.002793c6.860335 7.717877 18.008379 9.43296 27.44134 6.002793 7.717877-2.572626 9.43296 4.287709 13.72067 2.572626s7.717877-5.145251 17.150837-10.290502 16.293295 3.430167 18.865921-0.857542c3.430167-6.002793 6.002793-12.005586 8.575419-18.008379 1.715084-4.287709 2.572626-8.575419 3.430167-12.863128-1.715084-12.005586-8.575419-22.296088-3.430167-25.726256 1.715084-1.715084 2.572626-4.287709 1.715083-6.002793-0.857542-1.715084-1.715084-4.287709-3.430167-5.145251-2.572626-3.430167-0.857542-4.287709-11.148044-6.002793-5.145251-0.857542-3.430167-8.575419-7.717877-8.575419s-9.43296 2.572626-14.578212 10.290502c-9.43296 14.578212-28.298881 18.865921-44.592177 11.148045-12.863128-7.717877-25.726256-18.008379-18.008379-23.153631s9.43296-6.860335 8.575419-12.863128 5.145251-6.002793 0.857542-11.148044-7.717877-6.002793-7.717877-8.575419-9.43296 5.145251-8.575419-7.717876-1.715084-18.008379 7.717877-22.296089 8.575419-16.293295-3.430167-15.435753c-3.430167-0.857542-7.717877-0.857542-10.290503 0.857542-6.002793 4.287709-28.298881 5.145251-31.729049 0s-6.002793-2.572626-6.860335 0.857541c-10.290502 12.863128-9.43296 9.43296 0.857542 25.726256 6.002793 6.860335 2.572626 12.005586-4.287709 16.293296-5.145251 4.287709-12.863128 5.145251-18.865921 0.857542-10.290502-3.430167-36.016758 17.150837-18.865921 28.298881 2.572626 2.572626 5.145251 6.860335 2.572626 9.432961 1.715084 8.575419-18.008379 26.583798-24.868714 36.8743-2.572626 2.572626-8.575419 4.287709-11.148045 8.575418-1.715084 4.287709-4.287709 8.575419-6.860335 12.005586-2.572626 3.430167-10.290502 8.575419-13.720669 8.575419s-5.145251-6.002793-8.575419-3.430167c-5.145251 3.430167-7.717877 19.723463-7.717877 23.15363 3.430167 15.435754-13.72067 34.301675 0.857542 48.022344 9.43296 8.575419-3.430167 28.298881 6.860335 33.444133 4.287709 3.430167-1.715084 9.43296-5.145251 13.72067-1.715084 2.572626 0.857542 10.290502-2.572626 11.148044-6.860335 3.430167-21.438547 6.860335-26.583797 12.005586-6.860335 5.145251-18.865921 5.145251-13.72067-5.145251 1.715084-4.287709-1.715084-6.002793-5.145251-6.860335-13.72067-6.002793-43.734635 11.148044-54.025138 25.726256z" fill="" p-id="2305"></path></svg>